<svg width="174" height="50" viewBox="0 0 174 50" fill="none" xmlns="http://www.w3.org/2000/svg">
<g clip-path="url(#clip0)">
<path d="M49.4802 30.2782V40.7269H56.6697V30.2782L53.0749 25L49.4802 30.2782Z" stroke="#FFB92D" stroke-linecap="round" stroke-linejoin="round"/>
<path d="M58.2792 28.5947H68.8018V21.4053H58.3511L53 25L58.2792 28.5947Z" stroke="#FFB92D" stroke-linecap="round" stroke-linejoin="round"/>
<path d="M56.5947 19.6207L56.5947 8.89868L49.4053 8.89868L49.4053 19.5475L53 25L56.5947 19.6207Z" stroke="#FFB92D" stroke-linecap="round" stroke-linejoin="round"/>
<path d="M47.7748 21.26L37.36 21.26V28.74L47.7037 28.74L53 25L47.7748 21.26Z" stroke="#FFB92D" stroke-linecap="round" stroke-linejoin="round"/>
<circle cx="53" cy="25" r="15" stroke="#FFB92D" stroke-width="4"/>
<circle cx="52.9999" cy="25" r="2.2467" fill="#FFB92D"/>
<path d="M17.9388 7.92C7.85875 7.92 0.80275 15.024 0.80275 25.104C0.80275 35.184 7.90675 42.24 17.9868 42.24C26.8668 42.24 32.4828 36.432 34.2108 30.624V22.992H16.3548V29.04H26.7708C25.5228 32.832 22.6908 34.992 18.6108 34.992C12.7068 34.992 9.15475 31.344 9.15475 25.104C9.15475 19.248 12.6588 15.504 17.9388 15.504C21.0108 15.504 23.3148 16.704 24.5627 18.96H33.6348C31.8588 12.048 26.0028 7.92 17.9388 7.92Z" fill="#333333"/>
<path d="M78.7518 42H88.6878L94.2558 19.824L99.6318 42H109.568L118.352 8.304H109.52L104.624 32.832L98.8638 8.304H89.8398L83.8398 32.832L78.9918 8.304H70.2078L78.7518 42ZM143.108 8.304H122.468V42H143.108V35.424H130.676V28.032H141.668V21.696H130.676V14.88H143.108V8.304ZM172.917 31.968C172.917 20.688 156.261 23.328 156.261 17.472C156.261 15.36 157.749 14.352 159.717 14.4C161.925 14.448 163.461 15.744 163.605 17.904H172.485C172.149 11.472 167.205 7.824 159.861 7.824C152.805 7.824 147.573 11.376 147.573 17.76C147.477 29.712 164.325 26.352 164.325 32.592C164.325 34.56 162.789 35.76 160.389 35.76C158.085 35.76 156.453 34.512 156.213 31.92H147.477C147.717 38.736 153.381 42.336 160.629 42.336C168.501 42.336 172.917 37.632 172.917 31.968Z" fill="#333333"/>
</g>
<defs>
<clipPath id="clip0">
<rect width="174" height="50" fill="white"/>
</clipPath>
</defs>
</svg>
