<svg width="118" height="50" viewBox="0 0 118 50" fill="none" xmlns="http://www.w3.org/2000/svg">
<path d="M22.032 23.2098C22.488 23.2098 22.848 23.3418 23.112 23.6058C23.4 23.8698 23.544 24.2298 23.544 24.6858V33.1098C23.544 33.9258 23.424 34.5138 23.184 34.8738C22.968 35.2338 22.524 35.5218 21.852 35.7378C20.892 36.1218 19.752 36.4218 18.432 36.6378C17.112 36.8538 15.804 36.9618 14.508 36.9618C11.94 36.9618 9.72 36.4458 7.848 35.4138C5.976 34.3818 4.548 32.8938 3.564 30.9498C2.58 29.0058 2.088 26.6778 2.088 23.9658C2.088 21.3018 2.58 18.9978 3.564 17.0538C4.548 15.1098 5.952 13.6218 7.776 12.5898C9.624 11.5338 11.784 11.0058 14.256 11.0058C15.936 11.0058 17.484 11.2578 18.9 11.7618C20.34 12.2418 21.564 12.9498 22.572 13.8858C23.052 14.2698 23.292 14.7498 23.292 15.3258C23.292 15.7578 23.172 16.1298 22.932 16.4418C22.692 16.7298 22.404 16.8738 22.068 16.8738C21.852 16.8738 21.66 16.8378 21.492 16.7658C21.324 16.6938 21.108 16.5738 20.844 16.4058C19.668 15.5418 18.6 14.9418 17.64 14.6058C16.68 14.2458 15.576 14.0658 14.328 14.0658C11.592 14.0658 9.504 14.9178 8.064 16.6218C6.624 18.3018 5.904 20.7498 5.904 23.9658C5.904 27.2538 6.636 29.7498 8.1 31.4538C9.588 33.1338 11.76 33.9738 14.616 33.9738C16.536 33.9738 18.384 33.6858 20.16 33.1098V26.0178H15.444C14.964 26.0178 14.58 25.8978 14.292 25.6578C14.028 25.3938 13.896 25.0458 13.896 24.6138C13.896 24.1818 14.028 23.8458 14.292 23.6058C14.58 23.3418 14.964 23.2098 15.444 23.2098H22.032ZM35.6234 36.9258C33.8954 36.9258 32.3714 36.5538 31.0514 35.8098C29.7554 35.0658 28.7474 34.0098 28.0274 32.6418C27.3314 31.2498 26.9834 29.6418 26.9834 27.8178C26.9834 25.9698 27.3314 24.3618 28.0274 22.9938C28.7474 21.6018 29.7554 20.5338 31.0514 19.7898C32.3714 19.0458 33.8954 18.6738 35.6234 18.6738C37.3514 18.6738 38.8634 19.0458 40.1594 19.7898C41.4794 20.5338 42.4874 21.6018 43.1834 22.9938C43.9034 24.3618 44.2634 25.9698 44.2634 27.8178C44.2634 29.6418 43.9034 31.2498 43.1834 32.6418C42.4874 34.0098 41.4794 35.0658 40.1594 35.8098C38.8634 36.5538 37.3514 36.9258 35.6234 36.9258ZM35.6234 34.0458C37.2314 34.0458 38.4554 33.5178 39.2954 32.4618C40.1594 31.4058 40.5914 29.8578 40.5914 27.8178C40.5914 25.8018 40.1594 24.2658 39.2954 23.2098C38.4314 22.1298 37.2074 21.5898 35.6234 21.5898C34.0394 21.5898 32.8154 22.1298 31.9514 23.2098C31.0874 24.2658 30.6554 25.8018 30.6554 27.8178C30.6554 29.8578 31.0754 31.4058 31.9154 32.4618C32.7794 33.5178 34.0154 34.0458 35.6234 34.0458ZM71.2496 19.8618C71.5136 19.1418 72.0056 18.7818 72.7256 18.7818C73.1816 18.7818 73.5896 18.9378 73.9496 19.2498C74.3096 19.5618 74.4896 19.9458 74.4896 20.4018C74.4896 20.6418 74.4416 20.8578 74.3456 21.0498L68.3696 35.6298C68.2256 36.0138 67.9856 36.3138 67.6496 36.5298C67.3136 36.7218 66.9416 36.8178 66.5336 36.8178C66.1496 36.8178 65.7896 36.7218 65.4536 36.5298C65.1176 36.3138 64.8776 36.0138 64.7336 35.6298L60.0536 24.0738L55.4816 35.6298C55.3376 36.0138 55.0976 36.3138 54.7616 36.5298C54.4496 36.7218 54.0896 36.8178 53.6816 36.8178C53.2976 36.8178 52.9256 36.7218 52.5656 36.5298C52.2296 36.3138 51.9776 36.0138 51.8096 35.6298L45.8696 21.0498C45.7736 20.8578 45.7256 20.6538 45.7256 20.4378C45.7256 19.9578 45.9176 19.5618 46.3016 19.2498C46.7096 18.9378 47.1536 18.7818 47.6336 18.7818C48.3536 18.7818 48.8456 19.1298 49.1096 19.8258L53.7536 32.1018L58.5056 19.9338C58.6496 19.5498 58.8776 19.2618 59.1896 19.0698C59.5016 18.8778 59.8376 18.7818 60.1976 18.7818C60.5336 18.7818 60.8576 18.8778 61.1696 19.0698C61.4816 19.2618 61.7096 19.5498 61.8536 19.9338L66.6056 32.0298L71.2496 19.8618ZM90.6472 32.2458C90.9832 32.2458 91.2592 32.3778 91.4752 32.6418C91.6912 32.9058 91.7992 33.2418 91.7992 33.6498C91.7992 34.3458 91.3672 34.9338 90.5032 35.4138C89.6632 35.8938 88.7392 36.2658 87.7312 36.5298C86.7472 36.7938 85.7992 36.9258 84.8872 36.9258C82.1032 36.9258 79.9072 36.1218 78.2992 34.5138C76.6912 32.8818 75.8872 30.6618 75.8872 27.8538C75.8872 26.0538 76.2352 24.4578 76.9312 23.0658C77.6512 21.6738 78.6472 20.5938 79.9192 19.8258C81.2152 19.0578 82.6792 18.6738 84.3112 18.6738C86.6632 18.6738 88.5232 19.4298 89.8912 20.9418C91.2592 22.4538 91.9432 24.4938 91.9432 27.0618C91.9432 28.0218 91.5112 28.5018 90.6472 28.5018H79.5232C79.7632 32.2218 81.5512 34.0818 84.8872 34.0818C85.7752 34.0818 86.5432 33.9618 87.1912 33.7218C87.8392 33.4818 88.5232 33.1698 89.2432 32.7858C89.3152 32.7378 89.5072 32.6418 89.8192 32.4978C90.1552 32.3298 90.4312 32.2458 90.6472 32.2458ZM84.3832 21.3378C82.9912 21.3378 81.8752 21.7818 81.0352 22.6698C80.1952 23.5578 79.6912 24.8058 79.5232 26.4138H88.8112C88.7392 24.7818 88.3192 23.5338 87.5512 22.6698C86.8072 21.7818 85.7512 21.3378 84.3832 21.3378ZM101.35 36.9258C98.9018 36.9258 96.8978 36.4218 95.3378 35.4138C94.9058 35.1498 94.5938 34.8738 94.4018 34.5858C94.2338 34.2978 94.1498 33.9738 94.1498 33.6138C94.1498 33.2298 94.2578 32.9058 94.4738 32.6418C94.6898 32.3778 94.9658 32.2458 95.3018 32.2458C95.6138 32.2458 96.1058 32.4378 96.7778 32.8218C97.4978 33.2058 98.1938 33.5178 98.8658 33.7578C99.5618 33.9978 100.426 34.1178 101.458 34.1178C102.61 34.1178 103.51 33.9138 104.158 33.5058C104.806 33.0978 105.13 32.5218 105.13 31.7778C105.13 31.2978 104.998 30.9138 104.734 30.6258C104.494 30.3378 104.062 30.0858 103.438 29.8698C102.814 29.6298 101.89 29.3778 100.666 29.1138C98.5538 28.6578 97.0298 28.0458 96.0938 27.2778C95.1818 26.4858 94.7258 25.4178 94.7258 24.0738C94.7258 23.0418 95.0258 22.1178 95.6258 21.3018C96.2258 20.4618 97.0538 19.8138 98.1098 19.3578C99.1658 18.9018 100.366 18.6738 101.71 18.6738C102.67 18.6738 103.606 18.8058 104.518 19.0698C105.43 19.3098 106.234 19.6698 106.93 20.1498C107.722 20.6778 108.118 21.2898 108.118 21.9858C108.118 22.3698 107.998 22.6938 107.758 22.9578C107.542 23.2218 107.278 23.3538 106.966 23.3538C106.75 23.3538 106.534 23.3058 106.318 23.2098C106.102 23.1138 105.814 22.9578 105.454 22.7418C104.806 22.3578 104.194 22.0578 103.618 21.8418C103.066 21.6258 102.37 21.5178 101.53 21.5178C100.522 21.5178 99.7058 21.7338 99.0818 22.1658C98.4818 22.5978 98.1818 23.1858 98.1818 23.9298C98.1818 24.6018 98.4578 25.1298 99.0098 25.5138C99.5858 25.8738 100.654 26.2218 102.214 26.5578C103.822 26.8938 105.082 27.2778 105.994 27.7098C106.906 28.1418 107.554 28.6818 107.938 29.3298C108.346 29.9538 108.55 30.7578 108.55 31.7418C108.55 33.3018 107.89 34.5618 106.57 35.5218C105.274 36.4578 103.534 36.9258 101.35 36.9258Z" fill="white"/>
<path d="M113.641 36.8538C112.993 36.8538 112.441 36.6378 111.985 36.2058C111.553 35.7738 111.337 35.2218 111.337 34.5498C111.337 33.8778 111.553 33.3258 111.985 32.8938C112.441 32.4378 112.993 32.2098 113.641 32.2098C114.289 32.2098 114.829 32.4378 115.261 32.8938C115.693 33.3258 115.909 33.8778 115.909 34.5498C115.909 35.2218 115.693 35.7738 115.261 36.2058C114.829 36.6378 114.289 36.8538 113.641 36.8538Z" fill="#FFB92D"/>
</svg>
